<svg version="1.1" id="Layer_1" xmlns="http://www.w3.org/2000/svg" xmlns:xlink="http://www.w3.org/1999/xlink" x="0px" y="0px"
	 width="100%" viewBox="0 0 2005 249" enable-background="new 0 0 2005 249" xml:space="preserve">
<path fill="#FFFFFF" opacity="1.000000" stroke="none" 
	d="
M1.000000,7.468657 
	C14.826935,7.000000 28.657209,7.170882 42.478867,6.900812 
	C46.897881,6.814466 48.110905,8.132852 48.093979,12.528536 
	C47.935509,53.675552 48.000019,94.823425 48.000031,135.971054 
	C48.000031,136.791061 48.000031,137.611069 48.000031,139.275223 
	C50.063396,137.691467 52.009544,136.733810 53.208187,135.194183 
	C64.367668,120.859978 75.314407,106.359894 86.500786,92.046982 
	C92.522697,84.341980 98.822891,76.849533 105.173103,69.411079 
	C106.201721,68.206184 108.141922,67.114075 109.669838,67.101845 
	C128.984909,66.947174 148.301636,67.000175 168.220444,67.634781 
	C143.251907,98.072510 116.740196,127.104164 90.687927,157.264145 
	C116.722206,186.311310 142.822983,215.432663 169.552322,245.255325 
	C167.360580,245.587723 166.001678,245.970200 164.641907,245.973297 
	C146.983505,246.013565 129.322540,246.139679 111.669411,245.832108 
	C109.329704,245.791336 106.404350,244.004776 104.811821,242.126587 
	C93.742386,229.071564 82.910896,215.813400 72.090164,202.549362 
	C65.408821,194.359344 58.900421,186.028412 52.261131,177.803726 
	C51.361988,176.689880 50.151825,175.827103 48.000000,173.851089 
	C48.000000,176.549026 48.000000,178.055450 48.000000,179.561874 
	C48.000000,199.885803 47.868549,220.211243 48.102085,240.532486 
	C48.153725,245.025894 46.741749,246.176132 42.417183,246.093994 
	C28.928165,245.837769 15.431199,246.000000 1.468657,246.000000 
	C1.000000,166.645767 1.000000,87.291542 1.000000,7.468657 
z"/>
<path fill="#FFFFFF" opacity="1.000000" stroke="none" 
	d="
M1221.468628,250.000000 
	C1220.180420,249.333511 1219.428955,248.204575 1218.530640,248.072006 
	C1209.479492,246.736465 1200.888184,243.659348 1193.885498,238.056747 
	C1186.591675,232.221298 1180.475220,224.920349 1173.767944,218.337753 
	C1172.953369,217.538284 1171.666138,217.220459 1170.000000,216.376526 
	C1170.000000,225.533646 1169.849365,233.844849 1170.069580,242.146210 
	C1170.166016,245.783539 1169.132690,247.223068 1165.300049,247.074356 
	C1158.479370,246.809723 1151.625488,246.717880 1144.815796,247.098175 
	C1140.198975,247.356003 1138.876465,245.964706 1138.893188,241.261581 
	C1139.066406,192.279724 1139.000000,143.297012 1139.000000,94.314545 
	C1139.000000,67.324203 1139.076416,40.333412 1138.918213,13.343995 
	C1138.894409,9.273672 1139.874023,7.681061 1144.209961,7.906110 
	C1151.022583,8.259706 1157.877197,8.227536 1164.693848,7.915569 
	C1168.853516,7.725201 1170.120850,9.005356 1170.093018,13.246965 
	C1169.911987,40.902550 1170.000000,68.559898 1170.000000,96.216667 
	C1170.000000,97.365829 1170.000000,98.514984 1170.000000,100.242233 
	C1171.182983,99.599335 1172.256958,99.380043 1172.673462,98.735672 
	C1181.952393,84.382759 1195.053101,74.500862 1211.089111,69.774651 
	C1223.279785,66.181770 1236.020630,64.361397 1249.192383,67.331413 
	C1258.368896,69.400566 1267.271973,71.820953 1275.451416,76.230042 
	C1289.414185,83.756569 1300.110229,94.883545 1307.889038,108.632408 
	C1318.290405,127.016495 1320.289551,147.207092 1318.891724,167.735382 
	C1317.148804,193.332397 1306.423584,214.908875 1286.811401,231.506958 
	C1276.387939,240.328568 1264.297119,246.400604 1250.396851,248.059708 
	C1249.692261,248.143814 1249.063477,248.863785 1248.699707,249.643860 
	C1239.979126,250.000000 1230.958130,250.000000 1221.468628,250.000000 
M1286.962402,167.225555 
	C1287.308228,163.644409 1288.079834,160.041260 1287.895996,156.487534 
	C1287.645386,151.642227 1286.529419,146.848816 1286.027100,142.007996 
	C1284.739136,129.597916 1279.622559,118.637123 1270.630249,110.493858 
	C1258.795166,99.776131 1244.982788,93.369804 1228.028687,93.725945 
	C1212.044922,94.061714 1199.064453,99.730705 1188.020020,110.560066 
	C1175.580688,122.757095 1170.712158,138.405777 1170.163452,155.220398 
	C1169.620117,171.873871 1172.996704,187.806473 1184.032715,201.145782 
	C1190.553345,209.027420 1198.334961,215.356354 1208.008179,218.996124 
	C1217.414429,222.535416 1226.967163,223.274948 1237.126221,222.255371 
	C1249.495361,221.013992 1259.319824,215.428986 1267.895508,207.424225 
	C1279.193604,196.878448 1285.347168,183.529572 1286.962402,167.225555 
z"/>
<path fill="#FFFFFF" opacity="1.000000" stroke="none" 
	d="
M983.468628,250.000000 
	C982.346985,249.334122 981.758972,248.171432 981.031372,248.076370 
	C968.703308,246.465607 958.107605,240.886261 948.272156,233.713104 
	C938.633240,226.683334 930.785095,217.851120 925.104370,207.424667 
	C919.094360,196.393814 914.566162,184.746719 913.933411,171.902023 
	C913.743225,168.041046 912.381897,164.233246 912.238281,160.375702 
	C912.081055,156.153992 912.579346,151.888885 913.024841,147.667252 
	C914.419495,134.452972 916.964661,121.540092 923.651428,109.806168 
	C932.817566,93.721474 945.175781,81.366508 962.429810,73.619446 
	C973.340271,68.720627 984.544250,66.193352 996.142334,66.150238 
	C1023.153137,66.049828 1044.735229,77.110748 1060.842651,100.652252 
	C1061.333618,97.675781 1061.951782,95.656593 1061.956787,93.635918 
	C1062.021729,67.147095 1062.146729,40.656559 1061.874634,14.170373 
	C1061.821167,8.952109 1063.424194,7.574669 1068.384888,7.897085 
	C1074.854858,8.317600 1081.380859,8.195891 1087.866943,7.925933 
	C1091.707031,7.766105 1093.090332,8.807626 1093.084229,12.918408 
	C1092.969360,89.219826 1092.963257,165.521515 1093.095825,241.822876 
	C1093.103394,246.182343 1091.662354,247.247772 1087.625610,247.076538 
	C1080.973633,246.794403 1074.279907,246.674271 1067.644287,247.107941 
	C1062.751831,247.427719 1061.709961,245.534943 1061.908569,241.085403 
	C1062.242310,233.612030 1062.000000,226.112946 1062.000000,218.418884 
	C1057.149658,216.676117 1056.073730,221.333344 1054.419678,223.410614 
	C1043.521362,237.097168 1029.823853,245.648621 1012.396729,248.057617 
	C1011.687927,248.155594 1011.063477,248.863815 1010.699829,249.643860 
	C1001.979126,250.000000 992.958191,250.000000 983.468628,250.000000 
M1010.624939,222.000198 
	C1024.715332,221.798126 1035.803589,214.582550 1044.803467,205.036957 
	C1061.043701,187.812103 1064.637573,166.277130 1060.656494,143.810211 
	C1057.978516,128.697556 1051.352173,115.161720 1038.202271,105.467064 
	C1029.063843,98.729843 1019.282288,94.719727 1008.079102,94.018799 
	C996.712280,93.307632 985.568298,94.004234 975.752197,100.714264 
	C969.913330,104.705460 963.246216,108.053741 958.693604,113.224838 
	C951.806519,121.047752 946.918152,130.301559 945.866516,141.242584 
	C944.604919,154.368027 943.910889,167.365326 947.652100,180.232605 
	C952.629883,197.352753 963.289734,210.005554 979.018188,217.819473 
	C988.484863,222.522491 998.934570,224.592972 1010.624939,222.000198 
z"/>
<path fill="#FFFFFF" opacity="1.000000" stroke="none" 
	d="
M1813.468628,250.000031 
	C1810.937256,249.006729 1808.970947,247.539398 1806.796265,247.097733 
	C1793.603027,244.418457 1782.548096,237.818115 1772.575195,229.075760 
	C1758.439819,216.684616 1749.786987,200.884903 1745.612061,182.903030 
	C1742.726074,170.473709 1742.504150,157.727386 1743.681641,144.783081 
	C1744.791138,132.585388 1747.851562,121.146660 1753.320923,110.595612 
	C1763.070068,91.787430 1777.922974,77.900696 1798.293335,71.215286 
	C1806.168823,68.630623 1814.766235,67.526711 1823.088867,67.220139 
	C1831.849976,66.897423 1840.870605,67.412849 1849.427124,69.221375 
	C1861.846802,71.846405 1872.107056,79.206131 1881.178345,87.870453 
	C1884.920776,91.445221 1887.661377,96.068932 1892.000000,99.872353 
	C1892.000000,91.500687 1892.272949,83.116615 1891.893433,74.762184 
	C1891.680054,70.064613 1893.149414,68.643204 1897.796631,68.899788 
	C1904.772949,69.284950 1911.789917,69.131546 1918.782349,68.942825 
	C1922.116211,68.852852 1923.055176,70.132645 1923.051147,73.333504 
	C1922.980591,129.814301 1922.978638,186.295258 1923.054077,242.776047 
	C1923.058472,246.092987 1921.888184,247.115067 1918.673340,247.055099 
	C1910.017578,246.893661 1901.357056,246.999924 1892.204346,246.999924 
	C1892.204346,237.024704 1892.204346,227.122513 1892.204346,217.220322 
	C1891.808716,216.990601 1891.413208,216.760864 1891.017578,216.531143 
	C1889.582031,217.951355 1887.921753,219.207443 1886.746460,220.817642 
	C1876.891602,234.319061 1863.667969,242.886337 1847.815063,247.648285 
	C1845.702881,248.282806 1843.539917,248.748260 1841.700195,249.645996 
	C1832.645752,250.000000 1823.291504,250.000000 1813.468628,250.000031 
M1891.498291,153.997757 
	C1890.667358,148.228729 1890.545898,142.246140 1888.884644,136.727036 
	C1881.017944,110.592041 1863.006958,95.943657 1836.096436,93.210754 
	C1823.670288,91.948814 1811.671143,95.578033 1801.072144,102.496681 
	C1793.094971,107.703865 1786.242798,114.250648 1782.064087,122.950882 
	C1775.404297,136.816376 1772.564575,151.221039 1774.816895,166.824188 
	C1776.964355,181.701294 1782.003784,194.970276 1792.393921,205.782028 
	C1806.523804,220.485367 1823.941162,225.751556 1843.960938,221.976913 
	C1865.203857,217.971680 1878.959229,204.836166 1887.060303,185.415329 
	C1891.114624,175.696091 1891.619873,165.216614 1891.498291,153.997757 
z"/>
<path fill="#FFFFFF" opacity="1.000000" stroke="none" 
	d="
M2006.000000,30.533144 
	C2004.665527,31.689703 2002.794312,32.031116 2002.084229,33.125874 
	C1997.622559,40.003319 1987.292725,44.283169 1979.600830,41.816280 
	C1971.367676,39.175819 1965.036621,31.446281 1964.822632,22.892773 
	C1964.583862,13.342838 1968.872070,7.319413 1976.732666,3.020699 
	C1977.404907,2.653073 1977.966187,2.082389 1978.289551,1.303000 
	C1982.356934,1.000000 1986.713745,1.000000 1991.243652,1.310137 
	C1997.165894,4.894434 2002.584717,8.493501 2004.892700,15.198627 
	C2004.911499,15.253016 2005.615723,15.071421 2006.000000,15.000004 
	C2006.000000,20.022093 2006.000000,25.044184 2006.000000,30.533144 
z"/>
<path fill="#FFFFFF" opacity="1.000000" stroke="none" 
	d="
M481.993408,117.064270 
	C486.256470,106.216148 492.119446,96.612206 500.009003,88.743141 
	C511.984619,76.798668 526.325806,69.187332 543.329773,65.758484 
	C563.204529,61.750740 581.432495,64.761765 598.260681,75.290123 
	C604.421204,79.144394 609.147705,85.290779 614.629089,90.487053 
	C614.629089,83.177208 614.629089,75.370941 614.629089,67.287338 
	C630.285950,67.287338 645.357544,67.287338 660.715393,67.287338 
	C660.715393,126.624100 660.715393,186.025040 660.715393,246.000000 
	C650.526062,246.000000 640.261536,246.000000 629.997070,246.000000 
	C626.330750,245.999985 622.657593,245.861206 619.000305,246.042587 
	C615.922668,246.195190 614.892761,244.955917 614.953003,241.945984 
	C615.098083,234.702057 615.000061,227.453247 615.000061,218.913116 
	C611.988098,222.167297 609.745483,224.374115 607.748413,226.784378 
	C597.841125,238.741501 584.931274,246.099167 569.836365,247.735565 
	C548.253052,250.075317 527.763489,246.196060 509.876495,232.472397 
	C490.696106,217.756348 480.236023,197.780563 476.278931,174.702057 
	C472.971222,155.411087 474.395538,135.980637 481.993408,117.064270 
M537.533508,195.019974 
	C548.938110,205.106354 562.080566,210.045517 577.238586,206.898071 
	C593.242920,203.574875 605.111389,194.486572 610.842651,178.832581 
	C612.750671,173.621185 612.852051,167.771317 614.052979,162.273102 
	C616.405579,151.502289 614.282288,141.085449 609.870605,131.576218 
	C601.996460,114.603996 588.089111,105.368935 569.193237,105.094246 
	C550.496460,104.822449 536.656738,113.510300 528.055359,130.055771 
	C522.867188,140.035629 522.036194,150.757553 522.824036,161.979172 
	C523.719238,174.730011 528.505310,185.320786 537.533508,195.019974 
z"/>
<path fill="#FFFFFF" opacity="1.000000" stroke="none" 
	d="
M374.701355,247.998871 
	C362.407806,247.332901 350.241730,248.211136 338.846710,245.653748 
	C319.488800,241.309219 303.636597,230.470917 291.961853,213.968628 
	C282.514252,200.614395 277.528259,185.923203 275.811371,169.615585 
	C273.929718,151.742691 274.875061,134.251694 281.312866,117.601059 
	C290.481415,93.887589 307.412781,77.568954 331.605408,69.067856 
	C344.615997,64.496040 358.080170,63.340019 371.688446,64.065285 
	C390.201660,65.051971 407.245514,71.263702 421.683014,82.553825 
	C435.761749,93.563393 445.309906,108.270432 450.059021,125.872070 
	C453.592834,138.969437 453.036133,152.279099 452.936340,165.578537 
	C452.905701,169.661850 451.499573,172.177856 446.196045,172.142258 
	C407.033691,171.879364 367.868744,172.000000 328.704620,172.000000 
	C326.900360,172.000000 325.096130,172.000000 322.856323,172.000000 
	C323.686981,183.273926 328.484772,192.386856 336.243073,199.450394 
	C342.608490,205.245819 351.113953,207.898972 359.580872,208.836426 
	C370.389160,210.033096 380.444244,206.867249 389.128235,200.230942 
	C391.545135,198.383942 393.766479,195.854446 395.130554,193.158844 
	C397.053680,189.358627 399.845703,188.894821 403.557068,188.939438 
	C416.554321,189.095673 429.554688,189.013321 442.553772,188.991043 
	C445.974640,188.985184 447.721619,189.256363 446.168671,193.807129 
	C437.829254,218.244873 420.621918,233.772827 397.188568,242.811493 
	C390.220734,245.499130 382.533295,246.321075 374.701355,247.998871 
M385.499573,141.000000 
	C391.956787,141.000000 398.414001,141.000000 404.883392,141.000000 
	C404.211273,127.448997 397.174438,115.488052 384.032043,108.748657 
	C369.006927,101.043808 353.464325,101.570198 339.483063,111.386887 
	C329.650085,118.290939 324.401367,128.575623 322.931183,141.000000 
	C343.910492,141.000000 364.205170,141.000000 385.499573,141.000000 
z"/>
<path fill="#FFFFFF" opacity="1.000000" stroke="none" 
	d="
M1417.622681,95.742821 
	C1408.791382,96.812325 1402.410156,101.640976 1397.170166,107.658066 
	C1387.502441,118.759277 1385.270752,132.627045 1385.112305,146.646423 
	C1384.754395,178.299820 1384.938843,209.960312 1385.076538,241.617157 
	C1385.093872,245.620865 1384.233765,247.342026 1379.827881,247.096542 
	C1373.183716,246.726334 1366.497559,246.827606 1359.841431,247.068390 
	C1356.185303,247.200653 1354.805542,246.101196 1354.924561,242.287125 
	C1355.173706,234.297226 1355.000000,226.294128 1355.000000,218.296463 
	C1355.000000,170.477051 1355.000000,122.657646 1355.000000,74.838242 
	C1355.000000,73.042496 1355.000000,71.246750 1355.000000,69.001038 
	C1364.108398,69.001038 1372.887329,69.058357 1381.664673,68.970634 
	C1384.832153,68.938980 1385.043213,70.805595 1385.021362,73.215286 
	C1384.959839,80.029930 1385.000000,86.845497 1385.000000,95.150970 
	C1387.856323,91.968552 1390.044312,89.796776 1391.925537,87.385727 
	C1398.164795,79.389450 1406.425049,74.587891 1415.743774,70.873451 
	C1427.940308,66.011871 1440.679565,65.965965 1453.076294,67.344589 
	C1464.790649,68.647324 1476.437256,72.702301 1485.324219,81.109123 
	C1491.451660,86.905510 1496.494019,93.882370 1501.755859,100.541473 
	C1503.486938,102.732277 1503.888428,102.598740 1505.326050,100.348114 
	C1512.796997,88.651550 1522.269043,78.993103 1535.203003,73.420113 
	C1543.962280,69.645866 1552.950562,67.041771 1562.782349,66.801071 
	C1573.888672,66.529160 1584.649414,67.844147 1595.055786,71.215088 
	C1599.806396,72.753944 1604.154541,75.925041 1608.288940,78.905617 
	C1622.264893,88.981316 1630.864380,102.763809 1634.669312,119.434837 
	C1636.001221,125.270966 1636.864014,131.349777 1636.899414,137.323959 
	C1637.105103,171.979309 1636.904663,206.637085 1637.110962,241.292435 
	C1637.139404,246.046402 1635.720581,247.387695 1631.151978,247.091248 
	C1625.344849,246.714386 1619.484741,246.786301 1613.665527,247.054962 
	C1606.648682,247.378922 1605.908813,245.619766 1605.933838,239.563461 
	C1606.072021,206.073776 1606.612793,172.567627 1605.760498,139.099091 
	C1605.281006,120.268250 1597.665894,104.521423 1578.622559,96.978065 
	C1570.566895,93.787064 1562.318970,92.852448 1553.530273,93.764397 
	C1546.626831,94.480705 1540.244019,95.906677 1534.072510,98.960777 
	C1523.291504,104.296051 1516.864380,113.324142 1514.223877,124.517662 
	C1512.146118,133.325699 1511.248901,142.580841 1511.138062,151.653381 
	C1510.771851,181.640182 1510.934692,211.634537 1511.077637,241.625137 
	C1511.096802,245.642609 1510.211792,247.345474 1505.819824,247.095245 
	C1499.342773,246.726242 1492.818604,246.777817 1486.334717,247.080521 
	C1482.225098,247.272385 1480.878174,246.072586 1480.904175,241.781021 
	C1481.085693,211.957474 1481.241821,182.129379 1480.880981,152.309097 
	C1480.736450,140.351013 1480.333008,128.124176 1474.890991,117.087868 
	C1469.712402,106.585953 1461.947998,98.629807 1449.914185,96.000160 
	C1445.364502,95.005943 1440.806519,93.230011 1436.258423,93.249596 
	C1430.165161,93.275841 1424.078003,94.699974 1417.622681,95.742821 
z"/>
<path fill="#FFFFFF" opacity="1.000000" stroke="none" 
	d="
M879.000000,175.000000 
	C879.000000,198.802597 879.000000,222.105194 879.000000,245.725662 
	C877.557800,245.825150 876.290466,245.986664 875.022888,245.988541 
	C862.362244,246.007416 849.698425,245.838333 837.042908,246.092697 
	C832.930359,246.175354 831.875854,244.364838 831.995789,240.875504 
	C832.024414,240.043564 832.000000,239.209793 832.000000,238.376862 
	C832.000000,205.892395 832.141968,173.406906 831.906738,140.924133 
	C831.842712,132.087570 829.494507,123.609917 823.311279,116.831978 
	C817.014526,109.929726 809.171143,106.697037 799.710571,105.739388 
	C792.110474,104.970062 785.097595,105.394249 777.966553,107.934151 
	C763.062134,113.242699 756.673035,123.460709 756.214355,138.763123 
	C755.193909,172.810135 755.270081,206.891571 755.085815,240.959976 
	C755.064514,244.902115 753.993774,246.162003 749.991150,246.086456 
	C737.501587,245.850769 725.003235,245.895386 712.511597,246.066833 
	C708.991394,246.115143 707.933777,244.942200 707.939026,241.462433 
	C708.024963,184.489792 708.028992,127.516960 707.931946,70.544365 
	C707.925781,66.922943 709.637024,66.010231 712.621643,66.006783 
	C725.282227,65.992157 737.942871,65.993378 750.603455,66.006210 
	C753.751282,66.009399 755.220337,67.315918 755.071167,70.772377 
	C754.813965,76.730934 755.000000,82.708626 755.000000,89.286522 
	C756.227722,88.597549 757.226135,88.350632 757.720093,87.712914 
	C765.146729,78.124458 774.003479,71.136436 786.133850,67.689049 
	C795.266235,65.093697 804.285156,63.364437 813.571167,64.104240 
	C832.505859,65.612747 849.229492,71.762436 861.874573,87.165627 
	C871.701477,99.135857 877.269531,112.486458 877.927002,127.775337 
	C878.596252,143.336838 878.667114,158.924042 879.000000,175.000000 
z"/>
<path fill="#FFFFFF" opacity="1.000000" stroke="none" 
	d="
M194.000000,90.000000 
	C194.000000,62.191212 194.000000,34.882427 194.000000,7.287109 
	C209.286606,7.287109 224.358368,7.287109 239.715881,7.287109 
	C239.715881,86.624794 239.715881,166.025131 239.715881,245.712891 
	C224.713394,245.712891 209.641647,245.712891 194.000000,245.712891 
	C194.000000,194.017868 194.000000,142.258926 194.000000,90.000000 
z"/>
<path fill="#FFFFFF" opacity="1.000000" stroke="none" 
	d="
M1970.000000,211.000000 
	C1970.000000,165.185257 1970.056885,119.870323 1969.908569,74.556061 
	C1969.894287,70.201736 1971.022095,68.648849 1975.497559,68.907631 
	C1981.807129,69.272484 1988.168823,69.266975 1994.479248,68.909081 
	C1998.918457,68.657318 2000.109741,70.142441 2000.093506,74.532631 
	C1999.937134,116.681427 2000.000000,158.831039 2000.000000,200.980423 
	C2000.000000,214.808090 1999.906738,228.636810 2000.065308,242.462662 
	C2000.105225,245.948608 1999.008911,247.154221 1995.486084,247.066376 
	C1987.183960,246.859283 1978.873169,246.999954 1970.000000,246.999954 
	C1970.000000,235.022186 1970.000000,223.261093 1970.000000,211.000000 
z"/>
<path fill="#FFFFFF" opacity="1.000000" stroke="none" 
	d="
M1711.363281,237.154831 
	C1706.953003,244.259506 1698.666260,248.251923 1692.303345,246.740051 
	C1681.089966,244.075699 1676.477295,236.196625 1675.944824,229.977890 
	C1674.940430,218.249023 1681.110474,212.069290 1689.127197,209.115021 
	C1696.918213,206.243958 1703.892212,208.677170 1709.213989,214.818008 
	C1714.975830,221.466415 1715.559448,229.008041 1711.363281,237.154831 
z"/>
</svg>